# xmcd
#
# Track frame offsets: 
#        150
#        12447
#        26064
#        35182
#        47307
#        58614
#        69263
#        77646
#        87423
#        100333
#        109798
#        120707
#        131111
#        140560
#        152201
#        163700
#        172655
#        184386
#        195415
#        204363
#        215129
#        227052
#
# Disc length: 3171 seconds
#
# Revision: 1
# Processed by: cddbd v1.5.2PL0 Copyright (c) Steve Scherf et al.
# Submitted via: ExactAudioCopy v1.0b1
#
DISCID=350c6116
DTITLE=Barbara Lynn - The Crazy Cajun Recordings
DYEAR=1998
DGENRE=Blues
TTITLE0=Shed So Many Tears
TTITLE1=Then You Can Tell Me Goodbye
TTITLE2=You Better Get Here Fast
TTITLE3=Sugar Coated Love
TTITLE4=It Won't Be Long
TTITLE5=I'm A Good Woman
TTITLE6=Nice And Easy
TTITLE7=You Left The Water Running
TTITLE8=Give Him His Freedom
TTITLE9=Take Your Time
TTITLE10=Thanks I Get
TTITLE11=Daddy Hot Stuff
TTITLE12=Until I'm Free
TTITLE13=Poor Old Trashman
TTITLE14=I'm So Lonesome I Could Cry
TTITLE15=I Warned You Baby
TTITLE16=It Ain't No Good To Be Good
TTITLE17=One Man Woman
TTITLE18=Nice and Easy (alt)
TTITLE19=I'm A Good Woman (alt)
TTITLE20=Poor Old Trashman (alt)
TTITLE21=You Left Your Water Running (alt)
EXTD=YEAR: 1998
EXTT0=
EXTT1=
EXTT2=
EXTT3=
EXTT4=
EXTT5=
EXTT6=
EXTT7=
EXTT8=
EXTT9=
EXTT10=
EXTT11=
EXTT12=
EXTT13=
EXTT14=
EXTT15=
EXTT16=
EXTT17=
EXTT18=
EXTT19=
EXTT20=
EXTT21=
PLAYORDER=
